#!OML:ASF I:\Actors\actors\Patient Classification 1\Patient 1\Session 1\Subject1.ASF
:FULLY-SPECIFIED
:DEGREES
454
root -1.48706 17.5373 8.44451 0.432432 28.8407 -8.82861
lowerback 5.60075 2.94919 8.33591
upperback -10.4778 5.21585 -0.00383611
thorax -14.0237 1.62553 -5.54566
lowerneck -13.0962 -2.9184 -2.91654
upperneck 20.1327 -5.73874 10.954
head 8.87599 -1.74809 3.55979
rclavicle -5.1684e-015 -1.27222e-014
rhumerus 42.5947 59.4781 -48.6274
rradius 119.159
rwrist -31.9624
rhand -4.90272 -63.2059
rfingers 7.12502
rthumb 20.8869 -267.899
lclavicle -5.1684e-015 -1.27222e-014
lhumerus 31.2044 4.03066 82.958
lradius 61.1851
lwrist 57.4607
lhand -5.00486 0.105056
lfingers 7.12502
lthumb 20.7887 29.0114
rfemur 4.43098 7.34591 33.3091
rtibia 7.37252
rfoot -25.2297 -29.0259
rtoes 12.4596
lfemur -4.09469 -31.331 -3.48526
ltibia 3.41042
lfoot -6.4665 13.6519
ltoes -26.2444
455
root -1.51708 17.5509 8.43958 0.602302 28.8663 -8.97099
lowerback 6.1826 2.91518 8.25182
upperback -10.2484 5.20008 0.013241
thorax -14.1234 1.62233 -5.51397
lowerneck -13.3669 -2.92913 -2.66947
upperneck 19.4417 -5.68733 10.6802
head 8.67219 -1.75228 3.41247
rclavicle 4.07509e-015 1.59028e-014
rhumerus 41.9197 59.1715 -49.6071
rradius 119.882
rwrist -30.5801
rhand -5.93771 -63.0094
rfingers 7.12502
rthumb 19.8922 -267.989
lclavicle 4.07509e-015 1.59028e-014
lhumerus 31.773 4.0784 82.4796
lradius 61.4315
lwrist 57.5064
lhand -4.85788 -0.391268
lfingers 7.12502
lthumb 20.93 28.4996
rfemur 3.86074 6.98632 33.3615
rtibia 7.78041
rfoot -24.9061 -28.627
rtoes 12.0517
lfemur -4.64878 -31.1871 -3.04284
ltibia 3.65954
lfoot -6.48984 13.7845
ltoes -25.1825
456
root -1.54657 17.5646 8.4343 0.940951 28.7396 -9.01408
lowerback 6.68213 2.88435 7.97474
upperback -10.0824 5.16314 0.0691721
thorax -14.2668 1.62957 -5.32516
lowerneck -13.686 -2.81091 -2.29212
upperneck 18.9494 -5.48906 10.3274
head 8.5293 -1.67712 3.23926
rclavicle -5.11871e-014 -3.10104e-014
rhumerus 40.5409 59.5532 -51.2078
rradius 120.328
rwrist -28.4077
rhand -5.288 -62.7206
rfingers 7.12502
rthumb 20.5167 -268.343
lclavicle -5.11871e-014 -3.10104e-014
lhumerus 31.9021 4.43412 82.3217
lradius 61.7476
lwrist 57.6447
lhand -4.06978 -1.53115
lfingers 7.12502
lthumb 21.687 27.2742
rfemur 3.15274 6.61897 33.3121
rtibia 8.23458
rfoot -24.2158 -28.3144
rtoes 10.2575
lfemur -5.27911 -30.9651 -2.66205
ltibia 3.90391
lfoot -6.50359 14.086
ltoes -24.3639
457
root -1.57274 17.577 8.42719 1.48656 28.5596 -8.9569
lowerback 6.98341 2.8794 7.61998
upperback -9.98088 5.13264 0.111569
thorax -14.3649 1.65042 -5.09615
lowerneck -14.1465 -2.75457 -2.1065
upperneck 18.7064 -5.40579 10.1813
head 8.51751 -1.63606 3.16063
rclavicle -7.37491e-014 1.59028e-014
rhumerus 38.7203 60.8077 -52.9042
rradius 120.42
rwrist -26.9742
rhand -5.12778 -62.6478
rfingers 7.12502
rthumb 20.6706 -268.433
lclavicle -7.37491e-014 1.59028e-014
lhumerus 31.5789 4.89 82.6805
lradius 61.6969
lwrist 57.7827
lhand -2.99053 -0.689154
lfingers 7.12502
lthumb 22.7231 27.9928
rfemur 2.32855 6.49878 33.162
rtibia 8.59937
rfoot -23.6422 -27.982
rtoes 9.19079
lfemur -6.09839 -30.6022 -2.31101
ltibia 4.18855
lfoot -6.4137 14.3811
ltoes -23.9818
458
root -1.59241 17.5885 8.42014 2.06975 28.3823 -8.99809
lowerback 7.07874 2.90656 7.44374
upperback -9.89444 5.14959 0.137682
thorax -14.3311 1.68202 -4.9759
lowerneck -14.7438 -2.71886 -1.77806
upperneck 18.6241 -5.36521 9.85518
head 8.57884 -1.61402 2.99374
rclavicle -5.48646e-014 -2.54444e-014
rhumerus 36.6129 62.568 -54.5617
rradius 119.727
rwrist -26.2926
rhand -5.08955 -62.2491
rfingers 7.12502
rthumb 20.7074 -268.836
lclavicle -5.48646e-014 -2.54444e-014
lhumerus 30.8836 5.06606 83.1413
lradius 60.9309
lwrist 57.683
lhand -3.29653 -1.7582
lfingers 7.12502
lthumb 22.4294 26.9595
rfemur 1.50036 6.54171 33.1069
rtibia 8.81281
rfoot -23.1467 -27.7003
rtoes 8.60444
lfemur -6.96789 -30.4526 -1.85004
ltibia 4.45542
lfoot -6.38776 14.843
ltoes -23.1912
459
root -1.60411 17.5972 8.41408 2.63172 28.2318 -9.07848
lowerback 7.02518 2.95353 7.45408
upperback -9.80917 5.19888 0.108334
thorax -14.1824 1.71222 -5.01383
lowerneck -15.1477 -2.60929 -1.15146
upperneck 18.4276 -5.22232 9.24248
head 8.54333 -1.5625 2.69146
rclavicle -1.09332e-014 5.56597e-015
rhumerus 34.6292 64.5636 -55.9141
rradius 118.215
rwrist -27.0914
rhand -5.63793 -61.6937
rfingers 7.12502
rthumb 20.1804 -269.334
lclavicle -1.09332e-014 5.56597e-015
lhumerus 29.8963 4.6423 83.1608
lradius 59.6599
lwrist 57.907
lhand -3.84994 0.559187
lfingers 7.12502
lthumb 21.8981 29.34
rfemur 0.785891 6.54739 33.0915
rtibia 8.84632
rfoot -22.6664 -27.5471
rtoes 7.48833
lfemur -7.76099 -30.625 -1.40303
ltibia 4.67788
lfoot -6.40055 15.5196
ltoes -22.71
460
root -1.60895 17.5982 8.4076 3.20573 28.1405 -9.10581
lowerback 6.89191 2.92659 7.54487
upperback -9.73033 5.15312 0.0902875
thorax -14.0008 1.69197 -5.06166
lowerneck -15.5766 -2.46716 -0.855178
upperneck 18.6579 -5.09404 9.09595
head 8.68167 -1.47652 2.60866
rclavicle -7.05686e-015 1.03368e-014
rhumerus 33.5154 66.562 -56.3808
rradius 116.278
rwrist -29.5228
rhand -5.90517 -62.5425
rfingers 7.12502
rthumb 19.9235 -268.459
lclavicle -7.05686e-015 1.03368e-014
lhumerus 28.8255 3.86672 82.8841
lradius 57.812
lwrist 57.9917
lhand -4.50896 1.36083
lfingers 7.12502
lthumb 21.2651 30.2143
rfemur 0.192326 6.51478 33.0369
rtibia 8.69367
rfoot -22.36 -27.5192
rtoes 6.68979
lfemur -8.5204 -30.9467 -1.01171
ltibia 4.86734
lfoot -6.47868 16.187
ltoes -22.7106
461
root -1.6107 17.5881 8.39954 3.68879 28.0741 -9.15395
lowerback 6.8486 2.79558 7.63749
upperback -9.60955 4.97994 0.148219
thorax -13.8518 1.61453 -5.01103
lowerneck -15.8289 -2.23774 -0.515679
upperneck 18.7228 -4.83517 8.93174
head 8.7237 -1.33907 2.5277
rclavicle -1.67973e-014 1.03368e-014
rhumerus 34.2906 68.4798 -54.897
rradius 114.201
rwrist -33.082
rhand -6.49927 -63.9509
rfingers 7.12502
rthumb 19.3524 -266.992
lclavicle -1.67973e-014 1.03368e-014
lhumerus 27.9869 3.07476 82.679
lradius 55.7134
lwrist 57.785
lhand -5.69802 1.50014
lfingers 7.12502
lthumb 20.1226 30.478
rfemur -0.23338 6.68556 33.0641
rtibia 8.38967
rfoot -22.2813 -27.6863
rtoes 6.89632
lfemur -9.18398 -31.2366 -0.58635
ltibia 4.98444
lfoot -6.72979 16.6704
ltoes -22.5036
462
root -1.61021 17.5682 8.38653 3.98657 27.9957 -9.22324
lowerback 7.02377 2.61441 7.72597
upperback -9.40237 4.75028 0.198944
thorax -13.7452 1.5076 -4.96993
lowerneck -16.1087 -1.97655 -0.115071
upperneck 18.7194 -4.56864 8.87972
head 8.75128 -1.18338 2.4753
rclavicle -1.23246e-014 9.14409e-015
rhumerus 36.5609 69.5313 -52.0875
rradius 112.597
rwrist -34.6354
rhand -6.5883 -63.8073
rfingers 7.12502
rthumb 19.2667 -267.127
lclavicle -1.23246e-014 9.14409e-015
lhumerus 27.5332 2.52033 82.8848
lradius 54.0091
lwrist 57.1759
lhand -6.80749 1.2179
lfingers 7.12502
lthumb 19.056 30.3044
rfemur -0.445932 7.05466 33.1597
rtibia 8.03543
rfoot -22.343 -27.99
rtoes 7.53975
lfemur -9.64185 -31.3603 -0.207308
ltibia 5.0126
lfoot -6.9248 16.8201
ltoes -22.5577
463
root -1.60813 17.5445 8.36727 4.1181 27.8446 -9.24877
lowerback 7.51522 2.39766 7.74654
upperback -9.11918 4.48451 0.228613
thorax -13.7546 1.3821 -4.92697
lowerneck -16.5143 -1.73706 0.216579
upperneck 18.8498 -4.38146 9.04971
head 8.86117 -1.03734 2.50321
rclavicle 1.33683e-014 3.4191e-014
rhumerus 39.881 69.7453 -48.4634
rradius 112.312
rwrist -33.9952
rhand -6.48438 -63.2532
rfingers 7.12502
rthumb 19.3667 -267.691
lclavicle 1.33683e-014 3.4191e-014
lhumerus 27.3759 2.67482 83.8163
lradius 53.1258
lwrist 55.9339
lhand -6.94882 1.8398
lfingers 7.12502
lthumb 18.92 30.9396
rfemur -0.515635 7.3539 33.1879
rtibia 7.78519
rfoot -22.307 -28.1726
rtoes 8.15219
lfemur -9.85182 -31.371 -0.0147433
ltibia 5.01452
lfoot -6.99073 16.8009
ltoes -22.6982
